<?xml version="1.0" encoding="UTF-8" standalone="no"?>
<!DOCTYPE svg PUBLIC "-//W3C//DTD SVG 1.1//EN" "http://www.w3.org/Graphics/SVG/1.1/DTD/svg11.dtd">
<svg width="100%" height="100%" viewBox="0 0 3018 578" version="1.1" xmlns="http://www.w3.org/2000/svg" xmlns:xlink="http://www.w3.org/1999/xlink" xml:space="preserve" style="fill-rule:evenodd;clip-rule:evenodd;stroke-linejoin:round;stroke-miterlimit:2;">
    <g transform="matrix(1,0,0,1,-971.576,-1465.04)">
        <rect id="Artboard1" x="971.576" y="1465.04" width="3017.48" height="577.8" style="fill:none;"/>
        <clipPath id="_clip1">
            <rect id="Artboard11" x="971.576" y="1465.04" width="3017.48" height="577.8"/>
        </clipPath>
        <g clip-path="url(#_clip1)">
            <g transform="matrix(1,0,0,1,546.79,1048.92)">
                <g transform="matrix(600,0,0,600,1044.49,885.32)">
                    <path d="M0.228,-0.528L0.228,0.082C0.228,0.113 0.236,0.134 0.252,0.144C0.268,0.155 0.29,0.16 0.318,0.16L0.318,0.181C0.301,0.18 0.277,0.18 0.246,0.179C0.216,0.178 0.184,0.177 0.15,0.177C0.125,0.177 0.101,0.178 0.078,0.179C0.054,0.18 0.036,0.18 0.024,0.181L0.024,0.16C0.046,0.16 0.061,0.155 0.07,0.146C0.079,0.136 0.084,0.118 0.084,0.092L0.084,-0.408C0.084,-0.438 0.079,-0.46 0.07,-0.474C0.061,-0.489 0.044,-0.496 0.02,-0.496L0.02,-0.517C0.041,-0.515 0.062,-0.514 0.082,-0.514C0.109,-0.514 0.135,-0.515 0.16,-0.517C0.184,-0.52 0.207,-0.523 0.228,-0.528ZM0.383,-0.531C0.433,-0.531 0.476,-0.511 0.51,-0.469C0.544,-0.428 0.562,-0.365 0.562,-0.282C0.562,-0.217 0.552,-0.163 0.533,-0.119C0.514,-0.075 0.487,-0.041 0.453,-0.019C0.418,0.003 0.377,0.014 0.33,0.014C0.304,0.014 0.28,0.01 0.259,0.001C0.237,-0.008 0.221,-0.021 0.21,-0.038L0.22,-0.051C0.227,-0.039 0.237,-0.03 0.249,-0.023C0.261,-0.017 0.275,-0.013 0.291,-0.013C0.321,-0.013 0.344,-0.023 0.362,-0.043C0.379,-0.064 0.392,-0.092 0.399,-0.129C0.407,-0.167 0.411,-0.211 0.411,-0.262C0.411,-0.319 0.407,-0.364 0.4,-0.397C0.393,-0.43 0.383,-0.453 0.37,-0.467C0.357,-0.481 0.342,-0.488 0.324,-0.488C0.3,-0.488 0.278,-0.479 0.258,-0.46C0.239,-0.441 0.228,-0.414 0.225,-0.38L0.22,-0.415C0.232,-0.453 0.253,-0.482 0.281,-0.502C0.31,-0.521 0.344,-0.531 0.383,-0.531Z" style="fill:white;fill-rule:nonzero;"/>
                </g>
                <g transform="matrix(600,0,0,600,1393.09,885.32)">
                    <path d="M0.228,-0.783L0.228,-0.093C0.228,-0.065 0.232,-0.046 0.242,-0.036C0.252,-0.026 0.268,-0.021 0.292,-0.021L0.292,-0C0.279,-0.001 0.26,-0.002 0.235,-0.003C0.21,-0.004 0.184,-0.004 0.158,-0.004C0.132,-0.004 0.106,-0.004 0.079,-0.003C0.053,-0.002 0.033,-0.001 0.02,-0L0.02,-0.021C0.043,-0.021 0.059,-0.026 0.069,-0.036C0.079,-0.046 0.084,-0.065 0.084,-0.093L0.084,-0.663C0.084,-0.693 0.079,-0.715 0.07,-0.729C0.061,-0.744 0.044,-0.751 0.02,-0.751L0.02,-0.772C0.041,-0.77 0.062,-0.769 0.082,-0.769C0.109,-0.769 0.135,-0.77 0.16,-0.772C0.184,-0.775 0.207,-0.778 0.228,-0.783Z" style="fill:white;fill-rule:nonzero;"/>
                </g>
                <g transform="matrix(600,0,0,600,1564.69,885.32)">
                    <path d="M0.156,0.007C0.111,0.007 0.079,-0.005 0.059,-0.028C0.039,-0.051 0.029,-0.08 0.029,-0.113C0.029,-0.142 0.035,-0.165 0.048,-0.183C0.061,-0.201 0.078,-0.216 0.099,-0.227C0.12,-0.239 0.142,-0.249 0.165,-0.257C0.188,-0.264 0.21,-0.272 0.231,-0.28C0.251,-0.287 0.268,-0.296 0.281,-0.306C0.294,-0.316 0.301,-0.328 0.301,-0.344L0.301,-0.422C0.301,-0.439 0.298,-0.455 0.293,-0.468C0.287,-0.482 0.278,-0.492 0.267,-0.5C0.255,-0.508 0.24,-0.511 0.221,-0.511C0.208,-0.511 0.195,-0.51 0.181,-0.506C0.168,-0.502 0.157,-0.496 0.148,-0.487C0.167,-0.481 0.181,-0.471 0.192,-0.457C0.202,-0.443 0.207,-0.427 0.207,-0.41C0.207,-0.387 0.199,-0.369 0.184,-0.356C0.168,-0.343 0.149,-0.336 0.128,-0.336C0.104,-0.336 0.086,-0.344 0.073,-0.359C0.061,-0.374 0.055,-0.392 0.055,-0.413C0.055,-0.432 0.06,-0.448 0.069,-0.461C0.079,-0.474 0.093,-0.486 0.11,-0.497C0.129,-0.508 0.151,-0.516 0.177,-0.522C0.204,-0.528 0.233,-0.531 0.263,-0.531C0.294,-0.531 0.321,-0.528 0.346,-0.522C0.37,-0.516 0.391,-0.504 0.408,-0.487C0.424,-0.471 0.433,-0.453 0.438,-0.43C0.443,-0.408 0.445,-0.38 0.445,-0.346L0.445,-0.074C0.445,-0.058 0.446,-0.046 0.45,-0.04C0.453,-0.033 0.459,-0.03 0.467,-0.03C0.474,-0.03 0.48,-0.031 0.486,-0.035C0.492,-0.039 0.497,-0.043 0.503,-0.047L0.513,-0.03C0.499,-0.018 0.483,-0.009 0.465,-0.003C0.446,0.004 0.426,0.007 0.403,0.007C0.363,0.007 0.337,-0.001 0.324,-0.018C0.31,-0.034 0.303,-0.053 0.303,-0.074C0.286,-0.047 0.266,-0.027 0.241,-0.013C0.217,0 0.188,0.007 0.156,0.007ZM0.233,-0.057C0.246,-0.057 0.258,-0.06 0.269,-0.066C0.28,-0.072 0.291,-0.083 0.301,-0.098L0.301,-0.303C0.293,-0.29 0.282,-0.279 0.267,-0.27C0.253,-0.261 0.238,-0.251 0.224,-0.241C0.209,-0.231 0.196,-0.217 0.186,-0.201C0.176,-0.185 0.171,-0.164 0.171,-0.137C0.171,-0.108 0.177,-0.088 0.189,-0.076C0.201,-0.063 0.216,-0.057 0.233,-0.057Z" style="fill:white;fill-rule:nonzero;"/>
                </g>
                <g transform="matrix(600,0,0,600,1863.49,885.32)">
                    <path d="M0.396,-0.531C0.424,-0.531 0.447,-0.528 0.465,-0.521C0.482,-0.513 0.496,-0.504 0.506,-0.492C0.517,-0.48 0.525,-0.463 0.53,-0.443C0.535,-0.423 0.537,-0.396 0.537,-0.362L0.537,-0.093C0.537,-0.065 0.542,-0.046 0.552,-0.036C0.561,-0.026 0.578,-0.021 0.601,-0.021L0.601,-0C0.589,-0.001 0.57,-0.002 0.544,-0.003C0.519,-0.004 0.494,-0.004 0.469,-0.004C0.444,-0.004 0.419,-0.004 0.394,-0.003C0.37,-0.002 0.351,-0.001 0.339,-0L0.339,-0.021C0.359,-0.021 0.373,-0.026 0.381,-0.036C0.389,-0.046 0.393,-0.065 0.393,-0.093L0.393,-0.404C0.393,-0.42 0.392,-0.435 0.388,-0.447C0.385,-0.46 0.379,-0.47 0.37,-0.477C0.361,-0.484 0.348,-0.487 0.331,-0.487C0.303,-0.487 0.28,-0.476 0.261,-0.454C0.242,-0.432 0.232,-0.405 0.232,-0.371L0.232,-0.093C0.232,-0.065 0.236,-0.046 0.245,-0.036C0.253,-0.026 0.267,-0.021 0.286,-0.021L0.286,-0C0.274,-0.001 0.257,-0.002 0.234,-0.003C0.21,-0.004 0.187,-0.004 0.162,-0.004C0.137,-0.004 0.111,-0.004 0.084,-0.003C0.057,-0.002 0.038,-0.001 0.024,-0L0.024,-0.021C0.048,-0.021 0.064,-0.026 0.074,-0.036C0.083,-0.046 0.088,-0.065 0.088,-0.093L0.088,-0.408C0.088,-0.438 0.084,-0.461 0.075,-0.475C0.066,-0.489 0.049,-0.496 0.024,-0.496L0.024,-0.517C0.046,-0.515 0.066,-0.514 0.086,-0.514C0.114,-0.514 0.14,-0.516 0.165,-0.518C0.189,-0.52 0.212,-0.524 0.232,-0.528L0.232,-0.438C0.249,-0.472 0.271,-0.496 0.3,-0.51C0.328,-0.524 0.36,-0.531 0.396,-0.531Z" style="fill:white;fill-rule:nonzero;"/>
                </g>
                <g transform="matrix(600,0,0,600,2216.29,885.32)">
                    <path d="M0.265,-0.517L0.265,-0.496C0.25,-0.496 0.237,-0.495 0.227,-0.494C0.216,-0.492 0.208,-0.487 0.205,-0.479C0.201,-0.471 0.202,-0.458 0.208,-0.44L0.303,-0.143L0.29,-0.129L0.407,-0.518L0.427,-0.509L0.274,0.002C0.264,0.001 0.253,0.001 0.242,0.001C0.231,0.001 0.22,0.001 0.209,0.002L0.051,-0.44C0.042,-0.467 0.031,-0.483 0.021,-0.488C0.01,-0.494 0.001,-0.496 -0.007,-0.496L-0.007,-0.517C0.015,-0.515 0.037,-0.514 0.06,-0.513C0.083,-0.512 0.108,-0.511 0.135,-0.511C0.156,-0.511 0.178,-0.512 0.201,-0.513C0.224,-0.515 0.245,-0.516 0.265,-0.517ZM0.787,-0.517L0.787,-0.497C0.775,-0.493 0.763,-0.486 0.751,-0.474C0.739,-0.462 0.729,-0.441 0.719,-0.411L0.586,0.002C0.575,0.001 0.564,0.001 0.554,0.001C0.543,0.001 0.532,0.001 0.521,0.002L0.38,-0.383L0.407,-0.518C0.419,-0.518 0.432,-0.517 0.444,-0.518C0.456,-0.518 0.468,-0.518 0.48,-0.518L0.617,-0.114L0.606,-0.125L0.673,-0.337C0.69,-0.392 0.692,-0.431 0.678,-0.456C0.665,-0.481 0.642,-0.494 0.608,-0.497L0.608,-0.517C0.619,-0.517 0.63,-0.516 0.643,-0.516C0.655,-0.515 0.667,-0.515 0.679,-0.514C0.692,-0.514 0.702,-0.514 0.711,-0.514C0.724,-0.514 0.738,-0.514 0.753,-0.515C0.767,-0.515 0.779,-0.516 0.787,-0.517Z" style="fill:white;fill-rule:nonzero;"/>
                </g>
                <g transform="matrix(600,0,0,600,2678.29,885.32)">
                    <path d="M0.154,-0.775C0.182,-0.775 0.204,-0.768 0.221,-0.755C0.237,-0.741 0.245,-0.722 0.245,-0.698C0.245,-0.674 0.237,-0.655 0.221,-0.642C0.204,-0.628 0.182,-0.621 0.154,-0.621C0.126,-0.621 0.104,-0.628 0.088,-0.642C0.071,-0.655 0.063,-0.674 0.063,-0.698C0.063,-0.722 0.071,-0.741 0.088,-0.755C0.104,-0.768 0.126,-0.775 0.154,-0.775ZM0.232,-0.528L0.232,-0.093C0.232,-0.065 0.237,-0.046 0.247,-0.036C0.256,-0.026 0.273,-0.021 0.296,-0.021L0.296,-0C0.284,-0.001 0.265,-0.002 0.24,-0.003C0.215,-0.004 0.189,-0.004 0.163,-0.004C0.137,-0.004 0.111,-0.004 0.084,-0.003C0.057,-0.002 0.037,-0.001 0.024,-0L0.024,-0.021C0.047,-0.021 0.064,-0.026 0.074,-0.036C0.083,-0.046 0.088,-0.065 0.088,-0.093L0.088,-0.408C0.088,-0.438 0.084,-0.46 0.075,-0.475C0.066,-0.489 0.049,-0.496 0.024,-0.496L0.024,-0.517C0.045,-0.515 0.066,-0.514 0.086,-0.514C0.114,-0.514 0.14,-0.515 0.165,-0.518C0.189,-0.52 0.211,-0.523 0.232,-0.528Z" style="fill:white;fill-rule:nonzero;"/>
                </g>
                <g transform="matrix(600,0,0,600,2854.09,885.32)">
                    <path d="M0.222,-0.531C0.25,-0.531 0.275,-0.528 0.296,-0.521C0.316,-0.513 0.332,-0.507 0.341,-0.5C0.364,-0.485 0.378,-0.495 0.383,-0.53L0.404,-0.53C0.403,-0.511 0.402,-0.488 0.401,-0.462C0.4,-0.435 0.4,-0.399 0.4,-0.354L0.379,-0.354C0.376,-0.379 0.369,-0.403 0.36,-0.427C0.351,-0.451 0.337,-0.47 0.32,-0.486C0.302,-0.502 0.279,-0.509 0.251,-0.509C0.231,-0.509 0.215,-0.504 0.202,-0.493C0.189,-0.481 0.182,-0.466 0.182,-0.445C0.182,-0.425 0.188,-0.407 0.2,-0.392C0.212,-0.377 0.228,-0.363 0.247,-0.349C0.266,-0.336 0.285,-0.321 0.306,-0.306C0.339,-0.281 0.368,-0.256 0.391,-0.231C0.414,-0.206 0.425,-0.174 0.425,-0.134C0.425,-0.104 0.417,-0.078 0.399,-0.056C0.382,-0.033 0.359,-0.016 0.33,-0.004C0.302,0.008 0.27,0.014 0.236,0.014C0.216,0.014 0.198,0.012 0.182,0.008C0.167,0.004 0.153,-0.001 0.142,-0.007C0.133,-0.011 0.125,-0.015 0.118,-0.019C0.11,-0.023 0.103,-0.025 0.096,-0.028C0.089,-0.03 0.083,-0.028 0.078,-0.021C0.073,-0.015 0.07,-0.005 0.067,0.007L0.046,0.007C0.047,-0.014 0.048,-0.04 0.049,-0.071C0.049,-0.102 0.05,-0.142 0.05,-0.193L0.071,-0.193C0.075,-0.157 0.083,-0.125 0.093,-0.097C0.104,-0.07 0.118,-0.048 0.137,-0.033C0.155,-0.017 0.178,-0.009 0.206,-0.009C0.223,-0.009 0.239,-0.015 0.254,-0.026C0.269,-0.037 0.276,-0.055 0.276,-0.08C0.276,-0.109 0.267,-0.134 0.248,-0.153C0.228,-0.173 0.204,-0.194 0.175,-0.216C0.154,-0.234 0.133,-0.251 0.114,-0.268C0.095,-0.284 0.08,-0.303 0.068,-0.323C0.056,-0.343 0.05,-0.367 0.05,-0.393C0.05,-0.423 0.058,-0.449 0.074,-0.469C0.09,-0.489 0.111,-0.505 0.137,-0.516C0.164,-0.526 0.192,-0.531 0.222,-0.531Z" style="fill:white;fill-rule:nonzero;"/>
                </g>
                <g transform="matrix(600,0,0,600,3122.29,885.32)">
                    <path d="M0.282,-0.531C0.34,-0.531 0.386,-0.514 0.42,-0.479C0.453,-0.444 0.47,-0.388 0.47,-0.309L0.141,-0.309L0.139,-0.328L0.344,-0.328C0.345,-0.361 0.343,-0.391 0.338,-0.419C0.334,-0.446 0.326,-0.468 0.316,-0.485C0.306,-0.502 0.292,-0.51 0.276,-0.51C0.253,-0.51 0.233,-0.495 0.217,-0.466C0.201,-0.437 0.19,-0.388 0.187,-0.32L0.19,-0.314C0.189,-0.306 0.189,-0.298 0.188,-0.289C0.188,-0.28 0.188,-0.271 0.188,-0.262C0.188,-0.216 0.194,-0.178 0.207,-0.15C0.22,-0.121 0.237,-0.1 0.257,-0.087C0.277,-0.075 0.297,-0.068 0.318,-0.068C0.338,-0.068 0.36,-0.073 0.384,-0.083C0.408,-0.093 0.429,-0.115 0.45,-0.148L0.468,-0.142C0.46,-0.117 0.448,-0.092 0.43,-0.068C0.413,-0.044 0.391,-0.025 0.364,-0.009C0.337,0.006 0.305,0.014 0.268,0.014C0.223,0.014 0.183,0.004 0.148,-0.015C0.114,-0.034 0.086,-0.063 0.067,-0.103C0.047,-0.143 0.037,-0.193 0.037,-0.253C0.037,-0.315 0.048,-0.367 0.069,-0.408C0.09,-0.449 0.119,-0.48 0.156,-0.501C0.193,-0.521 0.235,-0.531 0.282,-0.531Z" style="fill:white;fill-rule:nonzero;"/>
                </g>
            </g>
            <g transform="matrix(12.5402,0,0,12.5402,945.789,1453.25)">
                <path d="M9.45,45.25C8.15,45.25 7.042,44.792 6.125,43.875C5.208,42.958 4.75,41.85 4.75,40.55L4.75,10.45C4.75,9.15 5.208,8.033 6.125,7.1C7.042,6.167 8.15,5.7 9.45,5.7L12.25,5.7L12.25,2.7L16.35,2.7L16.35,5.7L31.65,5.7L31.65,2.7L35.75,2.7L35.75,5.7L38.55,5.7C39.85,5.7 40.967,6.167 41.9,7.1C42.833,8.033 43.3,9.15 43.3,10.45L43.3,40.55C43.3,41.85 42.833,42.958 41.9,43.875C40.967,44.792 39.85,45.25 38.55,45.25L9.45,45.25ZM9.45,40.55L38.55,40.55L38.55,19.5L9.45,19.5L9.45,40.55ZM9.45,16.5L38.55,16.5L38.55,10.45L9.45,10.45L9.45,16.5ZM9.45,16.5L9.45,10.45L9.45,16.5ZM24,28.3C23.367,28.3 22.825,28.083 22.375,27.65C21.925,27.217 21.7,26.667 21.7,26C21.7,25.367 21.917,24.825 22.35,24.375C22.783,23.925 23.333,23.7 24,23.7C24.633,23.7 25.175,23.917 25.625,24.35C26.075,24.783 26.3,25.333 26.3,26C26.3,26.633 26.083,27.175 25.65,27.625C25.217,28.075 24.667,28.3 24,28.3ZM16,28.3C15.367,28.3 14.825,28.083 14.375,27.65C13.925,27.217 13.7,26.667 13.7,26C13.7,25.367 13.917,24.825 14.35,24.375C14.783,23.925 15.333,23.7 16,23.7C16.633,23.7 17.175,23.917 17.625,24.35C18.075,24.783 18.3,25.333 18.3,26C18.3,26.633 18.083,27.175 17.65,27.625C17.217,28.075 16.667,28.3 16,28.3ZM32,28.3C31.4,28.3 30.867,28.083 30.4,27.65C29.933,27.217 29.7,26.667 29.7,26C29.7,25.367 29.933,24.825 30.4,24.375C30.867,23.925 31.4,23.7 32,23.7C32.633,23.7 33.175,23.917 33.625,24.35C34.075,24.783 34.3,25.333 34.3,26C34.3,26.633 34.083,27.175 33.65,27.625C33.217,28.075 32.667,28.3 32,28.3ZM24,36.3C23.367,36.3 22.825,36.067 22.375,35.6C21.925,35.133 21.7,34.6 21.7,34C21.7,33.367 21.917,32.825 22.35,32.375C22.783,31.925 23.333,31.7 24,31.7C24.633,31.7 25.175,31.917 25.625,32.35C26.075,32.783 26.3,33.333 26.3,34C26.3,34.6 26.083,35.133 25.65,35.6C25.217,36.067 24.667,36.3 24,36.3ZM16,36.3C15.367,36.3 14.825,36.067 14.375,35.6C13.925,35.133 13.7,34.6 13.7,34C13.7,33.367 13.917,32.825 14.35,32.375C14.783,31.925 15.333,31.7 16,31.7C16.633,31.7 17.175,31.917 17.625,32.35C18.075,32.783 18.3,33.333 18.3,34C18.3,34.6 18.083,35.133 17.65,35.6C17.217,36.067 16.667,36.3 16,36.3ZM32,36.3C31.4,36.3 30.867,36.067 30.4,35.6C29.933,35.133 29.7,34.6 29.7,34C29.7,33.367 29.933,32.825 30.4,32.375C30.867,31.925 31.4,31.7 32,31.7C32.633,31.7 33.175,31.917 33.625,32.35C34.075,32.783 34.3,33.333 34.3,34C34.3,34.6 34.083,35.133 33.65,35.6C33.217,36.067 32.667,36.3 32,36.3Z" style="fill:white;fill-rule:nonzero;"/>
            </g>
        </g>
    </g>
</svg>
